<?xml version="1.0" encoding="UTF-8"?>
<!DOCTYPE svg PUBLIC "-//W3C//DTD SVG 1.1//EN" "http://www.w3.org/Graphics/SVG/1.1/DTD/svg11.dtd">
<!-- Creator: CorelDRAW 2019 (64-Bit) -->
<svg xmlns="http://www.w3.org/2000/svg" xml:space="preserve" width="1240px" height="1240px" version="1.1" style="shape-rendering:geometricPrecision; text-rendering:geometricPrecision; image-rendering:optimizeQuality; fill-rule:evenodd; clip-rule:evenodd"
viewBox="0 0 1885.151 1885.151"
 xmlns:xlink="http://www.w3.org/1999/xlink"
 xmlns:xodm="http://www.corel.com/coreldraw/odm/2003">
 <defs>
  <style type="text/css">
   <![CDATA[
    .fil0 {fill:white}
    .fil00 {fill:lime}
    .fil1 {fill:white;fill-rule:nonzero}
   ]]>
  </style>
  <!--
    <clipPath id="id0">
     <path d="M0 0l1885.151 0 0 1885.151 -1885.151 0 0 -1885.151z"/>
    </clipPath>
  -->
 </defs>
 <g id="Слой_x0020_1">
  <metadata id="CorelCorpID_0Corel-Layer"/>
  <g>
   <!-- BACKGROUND IMAGE GROUP -->
   <!--
   <g style="clip-path:url(#id0)">
    <image x="0" y="1256.767" width="628.384" height="628.384" xlink:href="board_Images\board_ImgID1.png"/>
    <image x="628.383" y="1256.767" width="628.384" height="628.384" xlink:href="board_Images\board_ImgID2.png"/>
    <image x="1256.766" y="1256.766" width="628.384" height="628.385" xlink:href="board_Images\board_ImgID3.png"/>
    <image x="0" y="628.384" width="628.384" height="628.384" xlink:href="board_Images\board_ImgID4.png"/>
    <image x="628.383" y="628.384" width="628.384" height="628.384" xlink:href="board_Images\board_ImgID5.png"/>
    <image x="1256.766" y="628.383" width="628.384" height="628.385" xlink:href="board_Images\board_ImgID6.png"/>
    <image x="0" y="0.001" width="628.385" height="628.384" xlink:href="board_Images\board_ImgID7.png"/>
    <image x="628.383" y="0.001" width="628.385" height="628.384" xlink:href="board_Images\board_ImgID8.png"/>
    <image x="1256.766" y="0" width="628.385" height="628.385" xlink:href="board_Images\board_ImgID9.png"/>
    <image x="1885.15" y="1256.767" width="0.001" height="628.384" xlink:href="board_Images\board_ImgID10.png"/>
    <image x="1885.15" y="628.384" width="0.001" height="628.384" xlink:href="board_Images\board_ImgID11.png"/>
    <image x="1885.15" y="0.001" width="0.001" height="628.384" xlink:href="board_Images\board_ImgID12.png"/>
    <image x="0" y="0" width="628.384" height="0.001" xlink:href="board_Images\board_ImgID13.png"/>
    <image x="628.383" y="0" width="628.384" height="0.001" xlink:href="board_Images\board_ImgID14.png"/>
    <image x="1256.766" y="0" width="628.384" height="0.001" xlink:href="board_Images\board_ImgID15.png"/>
    <image x="1885.15" y="0" width="0.001" height="0.001" xlink:href="board_Images\board_ImgID16.png"/>
   </g>
   -->
  </g>

  <!-- CORNERS -->
  <!-- corner top-right -->
  <path class="fil0" d="M1743.765 10.642l130.745 0 0 130.745 -130.745 0 0 -130.745zm65.373 13.683c28.547,0 51.689,23.142 51.689,51.69 0,28.547 -23.142,51.69 -51.689,51.69 -28.548,0 -51.69,-23.143 -51.69,-51.69 0,-28.548 23.142,-51.69 51.69,-51.69zm0 12.162c21.83,0 39.527,17.698 39.527,39.528 0,21.83 -17.697,39.527 -39.527,39.527 -21.831,0 -39.528,-17.697 -39.528,-39.527 0,-21.83 17.697,-39.528 39.528,-39.528z"/>
  <!-- corner right-bottom -->
  <path class="fil0" d="M1874.51 1743.766l0 130.744 -130.745 0 0 -130.744 130.745 0zm-13.683 65.372c0,28.548 -23.143,51.689 -51.69,51.689 -28.547,0 -51.69,-23.141 -51.69,-51.689 0,-28.548 23.143,-51.689 51.69,-51.689 28.547,0 51.69,23.141 51.69,51.689zm-12.163 0c0,21.83 -17.697,39.527 -39.527,39.527 -21.83,0 -39.527,-17.697 -39.527,-39.527 0,-21.83 17.697,-39.527 39.527,-39.527 21.83,0 39.527,17.697 39.527,39.527z"/>
  <!-- corner bottom-left -->
  <path class="fil0" d="M141.387 1874.509l-130.745 0 0 -130.744 130.745 0 0 130.744zm-65.373 -13.682c-28.547,0 -51.689,-23.143 -51.689,-51.69 0,-28.547 23.142,-51.69 51.689,-51.69 28.548,0 51.69,23.143 51.69,51.69 0,28.547 -23.142,51.69 -51.69,51.69zm0 -12.163c-21.83,0 -39.527,-17.697 -39.527,-39.527 0,-21.83 17.697,-39.528 39.527,-39.528 21.831,0 39.527,17.698 39.527,39.528 0,21.83 -17.696,39.527 -39.527,39.527z"/>
  <!-- corner left-top -->
  <path class="fil0" d="M10.642 141.386l0 -130.745 130.745 0 0 130.745 -130.745 0zm13.683 -65.373c0,-28.547 23.142,-51.689 51.69,-51.689 28.547,0 51.69,23.142 51.69,51.689 0,28.548 -23.143,51.69 -51.69,51.69 -28.548,0 -51.69,-23.142 -51.69,-51.69zm12.162 0c0,-21.83 17.698,-39.527 39.528,-39.527 21.83,0 39.527,17.697 39.527,39.527 0,21.831 -17.697,39.528 -39.527,39.528 -21.83,0 -39.528,-17.697 -39.528,-39.528z"/>


  <!-- TRACKS -->
  <!--track top-right -->
  <path class="fil0" d="M1730.083 588.35l0 46.062 -16.722 9.655 -16.723 9.655 16.723 9.655 16.722 9.655 0 46.062 -129.334 1.735c-434.691,0 -434.691,-3.255 -434.691,-435.015l0 -130.745 46.062 0 9.655 16.723 9.655 16.722 9.655 -16.722 9.655 -16.723 46.062 0c0,43.581 0,87.163 0,130.745 0,307.096 -7.601,302.536 302.537,302.536l130.744 0z"/>
  <!--track right-bottom -->
  <path class="fil0" d="M1296.802 1730.084l-46.062 0 -9.655 -16.723 -9.655 -16.723 -9.655 16.723 -9.656 16.723 -46.062 0 -1.735 -129.334c0,-434.691 3.256,-434.692 435.016,-434.692l130.745 0 0 46.062 -16.723 9.656 -16.723 9.655 16.723 9.655 16.723 9.655 0 46.062c-43.582,0 -87.163,0 -130.745,0 -307.097,0 -302.536,-7.601 -302.536,302.536l0 130.745z"/>
  <!--track bottom-left -->
  <path class="fil0" d="M155.068 1296.802l0 -46.062 16.723 -9.656 16.723 -9.655 -16.723 -9.655 -16.723 -9.655 0 -46.062 129.335 -1.735c434.691,0 434.691,3.256 434.691,435.016l0 130.745 -46.062 0 -9.656 -16.723 -9.654 -16.723 -9.655 16.723 -9.656 16.723 -46.061 0c0,-43.582 0,-87.164 0,-130.745 0,-307.097 7.601,-302.536 -302.537,-302.536l-130.745 0z"/>
  <!--track left-top -->
  <path class="fil0" d="M588.35 155.067l46.062 0 9.655 16.723 9.655 16.723 9.655 -16.723 9.655 -16.723 46.062 0 1.735 129.335c0,434.691 -3.255,434.691 -435.015,434.691l-130.745 0 0 -46.062 16.723 -9.655 16.722 -9.655 -16.722 -9.655 -16.723 -9.656 0 -46.061c43.581,0 87.163,0 130.745,0 307.096,0 302.536,7.601 302.536,-302.537l0 -130.745z"/>


  <!-- TOP LINE -->
  <!---->
  <rect class="fil0" transform="matrix(-2.62808E-14 -0.330769 0.307143 -2.44036E-14 155.069 141.386)" width="395.274" height="425.679"/>
  <!---->
  <rect class="fil0" transform="matrix(-2.62808E-14 -0.330769 0.307143 -2.44036E-14 299.496 141.386)" width="395.274" height="425.679"/>
  <!---->
  <rect class="fil0" transform="matrix(-2.62808E-14 -0.330769 0.307143 -2.44036E-14 443.923 141.386)" width="395.274" height="425.679"/>
  <!-- top of track left-top -->
  <polygon class="fil0" points="588.35,141.386 588.35,10.641 719.094,10.641 719.094,141.386 673.032,141.386 663.377,124.663 653.722,107.94 644.067,124.663 634.412,141.386 "/>
  <!---->
  <polygon class="fil0" points="732.777,10.642 863.521,10.642 863.521,103.379 840.717,103.379 840.621,118.582 863.521,118.582 863.521,141.387 732.777,141.387 "/>
  <!-- start -->
  <path class="fil0" d="M877.203 10.642l130.745 0 0 57.771 -22.804 0 0 15.203 22.804 0 0 57.771 -92.754 0c-0.195,-35.172 -2.819,-37.796 -37.991,-37.991l0 -92.754zm54.427 38.008l21.892 0c9.03,0 16.419,7.388 16.419,16.419l0 21.892c0,9.03 -7.389,16.419 -16.419,16.419l-21.892 0c-9.031,0 -16.419,-7.389 -16.419,-16.419l0 -21.892c0,-9.031 7.388,-16.419 16.419,-16.419zm1.805 27.365c0,2.644 -2.144,4.788 -4.789,4.788 -2.645,0 -4.789,-2.144 -4.789,-4.788 0,-2.645 2.144,-4.789 4.789,-4.789 2.645,0 4.789,2.144 4.789,4.789zm-9.331 13.682c0,-2.645 2.144,-4.788 4.788,-4.788 2.646,0 4.79,2.143 4.79,4.788 0,2.645 -2.144,4.789 -4.79,4.789 -2.644,0 -4.788,-2.144 -4.788,-4.789zm37.19 -13.682c0,2.644 -2.144,4.788 -4.789,4.788 -2.645,0 -4.789,-2.144 -4.789,-4.788 0,-2.645 2.144,-4.789 4.789,-4.789 2.645,0 4.789,2.144 4.789,4.789zm-5.036 18.471c-2.646,0 -4.789,-2.144 -4.789,-4.789 0,-2.645 2.143,-4.788 4.789,-4.788 2.645,0 4.789,2.143 4.789,4.788 0,2.645 -2.144,4.789 -4.789,4.789zm5.035 -32.153c0,2.644 -2.144,4.788 -4.789,4.788 -2.644,0 -4.788,-2.144 -4.788,-4.788 0,-2.645 2.144,-4.79 4.788,-4.79 2.645,0 4.789,2.145 4.789,4.79zm-32.647 -4.79c2.645,0 4.789,2.145 4.789,4.79 0,2.644 -2.144,4.788 -4.789,4.788 -2.645,0 -4.789,-2.144 -4.789,-4.788 0,-2.645 2.144,-4.79 4.789,-4.79zm-28.69 83.844l-22.753 0 0 -22.765c19.827,0.29 22.416,2.704 22.753,22.765z"/>
  <!-- home 1 -->
  <path class="fil0" d="M877.203 155.069l22.804 0 0 9.122 -11.708 0 9.655 16.722 9.655 16.723 9.655 -16.723 9.655 -16.722 -11.709 0 0 -9.122 92.738 0 0 130.744 -130.745 0 0 -130.744zm95.779 69.548c-0.757,1.603 -18.32,18.757 -21.901,22.326 -1.76,1.756 -5.789,6.417 -7.763,7.195l-27.634 -25.825c-1.308,-1.204 -2.375,-2.705 -3.514,-3.696l10.346 -0.019 0.028 -25.294 14.833 0.135 -0.019 21.002 12.569 0 0.033 -21.149 14.847 0.201 -0.011 25.103 8.186 0.021z"/>
  <!-- home 2 -->
  <path class="fil0" d="M877.203 299.496l130.745 0 0 130.745 -130.745 0 0 -130.745zm95.779 63.275c-0.757,1.602 -18.32,18.757 -21.901,22.326 -1.76,1.755 -5.789,6.417 -7.763,7.195l-27.634 -25.825c-1.308,-1.205 -2.375,-2.706 -3.514,-3.696l10.346 -0.02 0.028 -25.294 14.833 0.135 -0.019 21.003 12.569 0 0.033 -21.15 14.847 0.202 -0.011 25.103 8.186 0.021z"/>
  <!-- home 3 -->
  <path class="fil0" d="M877.203 443.923l130.745 0 0 130.744 -130.745 0 0 -130.744zm95.779 63.275c-0.757,1.602 -18.32,18.757 -21.901,22.326 -1.76,1.755 -5.789,6.417 -7.763,7.195l-27.634 -25.825c-1.308,-1.205 -2.375,-2.706 -3.514,-3.696l10.346 -0.02 0.028 -25.294 14.833 0.135 -0.019 21.003 12.569 0 0.033 -21.15 14.847 0.201 -0.011 25.104 8.186 0.021z"/>
  <!-- home 4 -->
  <path class="fil0" d="M877.203 588.35l130.745 0 0 130.744 -130.745 0 0 -130.744zm95.779 63.275c-0.757,1.602 -18.32,18.757 -21.901,22.326 -1.76,1.755 -5.789,6.417 -7.763,7.195l-27.634 -25.825c-1.308,-1.205 -2.375,-2.706 -3.514,-3.696l10.346 -0.02 0.028 -25.294 14.833 0.135 -0.019 21.003 12.569 0 0.033 -21.15 14.847 0.201 -0.011 25.103 8.186 0.022z"/>
  <!---->
  <polygon class="fil0" points="1021.63,10.642 1152.375,10.642 1152.375,141.387 1021.63,141.387 1021.63,83.616 1030.753,83.616 1030.753,95.324 1047.476,85.669 1064.198,76.014 1047.476,66.359 1030.753,56.704 1030.753,68.413 1021.63,68.413 "/>
  <!-- top of track top-right -->
  <polygon class="fil0" points="1166.057,10.642 1296.802,10.642 1296.802,141.387 1250.74,141.387 1241.085,124.664 1231.43,107.941 1221.775,124.664 1212.119,141.387 1166.057,141.387 "/>
  <!-- to toilet -->
  <rect class="fil0" x="1310.485" y="10.642" width="130.744" height="130.744"/>
  <!-- toilet 1 -->
  <path class="fil0" d="M1310.484 155.069l46.062 0 9.656 16.723 9.655 16.722 9.655 -16.722 9.655 -16.723 46.062 0 0 130.744 -130.745 0 0 -130.744zm54.427 38.007l21.892 0c9.03,0 16.419,7.388 16.419,16.419l0 21.892c0,9.03 -7.389,16.419 -16.419,16.419l-21.892 0c-9.031,0 -16.419,-7.389 -16.419,-16.419l0 -21.892c0,-9.031 7.388,-16.419 16.419,-16.419zm10.946 22.576c2.644,0 4.788,2.144 4.788,4.789 0,2.644 -2.144,4.788 -4.788,4.788 -2.645,0 -4.789,-2.144 -4.789,-4.788 0,-2.645 2.144,-4.789 4.789,-4.789z"/>
  <!-- toilet 3 -->
  <path class="fil0" d="M1454.911 155.069l130.745 0 0 130.744 -130.745 0 0 -46.062 16.723 -9.655 16.723 -9.655 -16.723 -9.655 -16.723 -9.655 0 -46.062zm54.427 38.007l21.892 0c9.03,0 16.419,7.388 16.419,16.419l0 21.892c0,9.03 -7.389,16.419 -16.419,16.419l-21.892 0c-9.031,0 -16.419,-7.389 -16.419,-16.419l0 -21.892c0,-9.031 7.388,-16.419 16.419,-16.419zm24.628 45.836c-2.645,0 -4.789,-2.144 -4.789,-4.789 0,-2.645 2.144,-4.788 4.789,-4.788 2.644,0 4.789,2.143 4.789,4.788 0,2.645 -2.145,4.789 -4.789,4.789zm-27.365 -36.943c2.645,0 4.789,2.145 4.789,4.79 0,2.644 -2.144,4.788 -4.789,4.788 -2.645,0 -4.789,-2.144 -4.789,-4.788 0,-2.645 2.144,-4.79 4.789,-4.79zm13.683 13.683c2.644,0 4.788,2.144 4.788,4.789 0,2.644 -2.144,4.788 -4.788,4.788 -2.645,0 -4.789,-2.144 -4.789,-4.788 0,-2.645 2.144,-4.789 4.789,-4.789z"/>
  <!-- toilet 6 -->
  <path class="fil0" d="M1599.338 155.069l130.745 0 0 130.744 -130.745 0 0 -46.062 16.723 -9.655 16.723 -9.655 -16.723 -9.655 -16.723 -9.656 0 -46.061zm54.427 38.007l21.892 0c9.03,0 16.419,7.388 16.419,16.419l0 21.892c0,9.03 -7.389,16.419 -16.419,16.419l-21.892 0c-9.031,0 -16.419,-7.389 -16.419,-16.419l0 -21.892c0,-9.031 7.388,-16.419 16.419,-16.419zm1.804 27.365c0,2.644 -2.144,4.788 -4.788,4.788 -2.645,0 -4.789,-2.144 -4.789,-4.788 0,-2.645 2.144,-4.789 4.789,-4.789 2.644,0 4.788,2.144 4.788,4.789zm-9.33 13.682c0,-2.645 2.143,-4.788 4.788,-4.788 2.645,0 4.789,2.143 4.789,4.788 0,2.645 -2.144,4.789 -4.789,4.789 -2.645,0 -4.788,-2.144 -4.788,-4.789zm37.189 -13.682c0,2.644 -2.144,4.788 -4.788,4.788 -2.645,0 -4.789,-2.144 -4.789,-4.788 0,-2.645 2.144,-4.789 4.789,-4.789 2.644,0 4.788,2.144 4.788,4.789zm-5.036 18.471c-2.645,0 -4.788,-2.144 -4.788,-4.789 0,-2.645 2.143,-4.788 4.788,-4.788 2.645,0 4.789,2.143 4.789,4.788 0,2.645 -2.144,4.789 -4.789,4.789zm5.036 -32.153c0,2.644 -2.144,4.788 -4.789,4.788 -2.644,0 -4.788,-2.144 -4.788,-4.788 0,-2.645 2.144,-4.79 4.788,-4.79 2.645,0 4.789,2.145 4.789,4.79zm-32.647 -4.79c2.644,0 4.788,2.145 4.788,4.79 0,2.644 -2.144,4.788 -4.788,4.788 -2.645,0 -4.789,-2.144 -4.789,-4.788 0,-2.645 2.144,-4.79 4.789,-4.79z"/>
  <!---->
  <rect class="fil0" x="1454.911" y="10.642" width="130.744" height="130.744"/>
  <!-- from toilet -->
  <polygon class="fil0" points="1599.338,10.642 1730.083,10.642 1730.083,141.387 1684.021,141.387 1674.366,124.664 1664.711,107.941 1655.056,124.664 1645.4,141.387 1599.338,141.387 "/>


  <!-- RIGHT LINE -->
  <!---->
  <rect class="fil0" x="1743.765" y="155.069" width="130.744" height="130.744"/>
  <!---->
  <rect class="fil0" x="1743.765" y="299.496" width="130.744" height="130.744"/>
  <!---->
  <rect class="fil0" x="1743.765" y="443.923" width="130.744" height="130.744"/>
  <!-- right of track top-right -->
  <polygon class="fil0" points="1743.765,588.35 1874.51,588.35 1874.51,719.094 1743.765,719.094 1743.765,673.032 1760.488,663.377 1777.211,653.722 1760.488,644.067 1743.765,634.412 "/>
  <!---->
  <polygon class="fil0" points="1743.765,732.777 1874.51,732.777 1874.51,863.521 1781.772,863.521 1781.772,840.717 1766.57,840.621 1766.57,863.521 1743.765,863.521 "/>
  <!-- start -->
  <path class="fil0" d="M1874.51 877.204l0 130.745 -57.771 0 0 -22.805 -15.203 0 0 22.805 -57.771 0 0 -92.755c35.172,-0.195 37.795,-2.819 37.991,-37.99l92.754 0zm-38.008 54.426l0 21.892c0,9.031 -7.388,16.419 -16.419,16.419l-21.892 0c-9.03,0 -16.419,-7.388 -16.419,-16.419l0 -21.892c0,-9.03 7.389,-16.419 16.419,-16.419l21.892 0c9.031,0 16.419,7.389 16.419,16.419zm-27.365 1.805c-2.645,0 -4.789,-2.144 -4.789,-4.789 0,-2.645 2.144,-4.789 4.789,-4.789 2.645,0 4.789,2.144 4.789,4.789 0,2.645 -2.144,4.789 -4.789,4.789zm-13.682 -9.331c2.645,0 4.788,2.144 4.788,4.789 0,2.645 -2.143,4.789 -4.788,4.789 -2.646,0 -4.789,-2.144 -4.789,-4.789 0,-2.645 2.143,-4.789 4.789,-4.789zm13.682 37.19c-2.645,0 -4.789,-2.144 -4.789,-4.789 0,-2.645 2.144,-4.789 4.789,-4.789 2.645,0 4.789,2.144 4.789,4.789 0,2.645 -2.144,4.789 -4.789,4.789zm-18.471 -5.036c0,-2.645 2.143,-4.789 4.789,-4.789 2.645,0 4.788,2.144 4.788,4.789 0,2.645 -2.143,4.789 -4.788,4.789 -2.646,0 -4.789,-2.144 -4.789,-4.789zm32.153 5.036c-2.644,0 -4.788,-2.144 -4.788,-4.789 0,-2.645 2.144,-4.789 4.788,-4.789 2.645,0 4.789,2.144 4.789,4.789 0,2.645 -2.144,4.789 -4.789,4.789zm4.789 -32.648c0,2.645 -2.144,4.789 -4.789,4.789 -2.644,0 -4.788,-2.144 -4.788,-4.789 0,-2.645 2.144,-4.789 4.788,-4.789 2.645,0 4.789,2.144 4.789,4.789zm-83.843 -28.689l0 -22.753 22.765 0c-0.291,19.827 -2.705,22.416 -22.765,22.753z"/>
  <!-- home 1 -->
  <path class="fil0" d="M1730.083 877.204l0 22.804 -9.122 0 0 -11.709 -16.723 9.655 -16.723 9.655 16.723 9.655 16.723 9.656 0 -11.709 9.122 0 0 92.738 -130.744 0 0 -130.745 130.744 0zm-63.275 95.778c-1.602,-0.757 -18.756,-18.32 -22.326,-21.9 -1.755,-1.761 -6.417,-5.789 -7.195,-7.764l25.825 -27.634c1.205,-1.308 2.706,-2.374 3.696,-3.514l0.02 10.346 25.294 0.028 -0.135 14.833 -21.003 -0.019 0 12.569 21.15 0.033 -0.201 14.847 -25.103 -0.01 -0.022 8.185z"/>
  <!-- home 2 -->
  <path class="fil0" d="M1585.656 877.204l0 130.745 -130.745 0 0 -130.745 130.745 0zm-63.275 95.778c-1.603,-0.757 -18.757,-18.32 -22.326,-21.9 -1.756,-1.761 -6.417,-5.789 -7.195,-7.764l25.825 -27.634c1.204,-1.308 2.705,-2.374 3.696,-3.514l0.019 10.346 25.294 0.028 -0.134 14.833 -21.003 -0.019 0 12.569 21.15 0.033 -0.202 14.847 -25.103 -0.01 -0.021 8.185z"/>
  <!-- home 3 -->
  <path class="fil0" d="M1441.229 877.204l0 130.745 -130.745 0 0 -130.745 130.745 0zm-63.275 95.778c-1.603,-0.757 -18.757,-18.32 -22.326,-21.9 -1.756,-1.761 -6.417,-5.789 -7.195,-7.764l25.825 -27.634c1.204,-1.308 2.705,-2.374 3.696,-3.514l0.02 10.346 25.293 0.028 -0.134 14.833 -21.003 -0.019 0 12.569 21.15 0.033 -0.202 14.847 -25.103 -0.01 -0.021 8.185z"/>
  <!-- home 4 -->
  <path class="fil0" d="M1296.802 877.204l0 130.745 -130.745 0 0 -130.745 130.745 0zm-63.275 95.778c-1.603,-0.757 -18.757,-18.32 -22.326,-21.9 -1.756,-1.761 -6.417,-5.789 -7.195,-7.764l25.825 -27.634c1.204,-1.308 2.705,-2.374 3.696,-3.514l0.02 10.346 25.294 0.028 -0.135 14.833 -21.003 -0.019 0 12.569 21.15 0.033 -0.202 14.847 -25.103 -0.01 -0.021 8.185z"/>
  <!---->
  <polygon class="fil0" points="1874.51,1021.631 1874.51,1152.376 1743.765,1152.376 1743.765,1021.631 1801.536,1021.631 1801.536,1030.753 1789.827,1030.753 1799.483,1047.476 1809.138,1064.199 1818.792,1047.476 1828.448,1030.753 1816.739,1030.753 1816.739,1021.631 "/>
  <!-- right of track right-bottom -->
  <polygon class="fil0" points="1874.51,1166.058 1874.51,1296.803 1743.765,1296.803 1743.765,1250.74 1760.488,1241.085 1777.211,1231.43 1760.488,1221.775 1743.765,1212.12 1743.765,1166.058 "/>
  <!-- to toilet -->
  <rect class="fil0" transform="matrix(8.76028E-15 0.330769 -0.307143 8.13455E-15 1874.51 1310.48)" width="395.274" height="425.679"/>
  <!-- toilet 1 -->
  <path class="fil0" d="M1730.083 1310.485l0 46.062 -16.723 9.655 -16.723 9.655 16.723 9.655 16.723 9.655 0 46.063 -130.744 0 0 -130.745 130.744 0zm-38.007 54.426l0 21.892c0,9.031 -7.388,16.419 -16.419,16.419l-21.892 0c-9.03,0 -16.419,-7.388 -16.419,-16.419l0 -21.892c0,-9.03 7.389,-16.419 16.419,-16.419l21.892 0c9.031,0 16.419,7.389 16.419,16.419zm-22.576 10.946c0,2.645 -2.144,4.789 -4.789,4.789 -2.645,0 -4.789,-2.144 -4.789,-4.789 0,-2.645 2.144,-4.789 4.789,-4.789 2.645,0 4.789,2.144 4.789,4.789z"/>
  <!-- toilet 3 -->
  <path class="fil0" d="M1730.083 1454.912l0 130.745 -130.744 0 0 -130.745 46.062 0 9.655 16.722 9.655 16.723 9.655 -16.723 9.655 -16.722 46.062 0zm-38.007 54.426l0 21.892c0,9.031 -7.388,16.419 -16.419,16.419l-21.892 0c-9.03,0 -16.419,-7.388 -16.419,-16.419l0 -21.892c0,-9.03 7.389,-16.419 16.419,-16.419l21.892 0c9.031,0 16.419,7.389 16.419,16.419zm-45.836 24.628c0,-2.645 2.143,-4.788 4.788,-4.788 2.646,0 4.789,2.143 4.789,4.788 0,2.645 -2.143,4.789 -4.789,4.789 -2.645,0 -4.788,-2.144 -4.788,-4.789zm36.942 -27.364c0,2.644 -2.144,4.788 -4.789,4.788 -2.645,0 -4.789,-2.144 -4.789,-4.788 0,-2.646 2.144,-4.79 4.789,-4.79 2.645,0 4.789,2.144 4.789,4.79zm-13.682 13.682c0,2.645 -2.144,4.789 -4.789,4.789 -2.645,0 -4.789,-2.144 -4.789,-4.789 0,-2.645 2.144,-4.789 4.789,-4.789 2.645,0 4.789,2.144 4.789,4.789z"/>
  <!-- toilet 6 -->
  <path class="fil0" d="M1730.083 1599.339l0 130.744 -130.744 0 0 -130.744 46.062 0 9.655 16.722 9.655 16.723 9.655 -16.723 9.655 -16.722 46.062 0zm-38.007 54.426l0 21.892c0,9.031 -7.388,16.419 -16.419,16.419l-21.892 0c-9.03,0 -16.419,-7.388 -16.419,-16.419l0 -21.892c0,-9.03 7.389,-16.419 16.419,-16.419l21.892 0c9.031,0 16.419,7.389 16.419,16.419zm-27.365 1.805c-2.645,0 -4.789,-2.144 -4.789,-4.789 0,-2.645 2.144,-4.789 4.789,-4.789 2.645,0 4.789,2.144 4.789,4.789 0,2.645 -2.144,4.789 -4.789,4.789zm-13.683 -9.331c2.646,0 4.789,2.144 4.789,4.789 0,2.645 -2.143,4.789 -4.789,4.789 -2.645,0 -4.788,-2.144 -4.788,-4.789 0,-2.645 2.143,-4.789 4.788,-4.789zm13.683 37.19c-2.645,0 -4.789,-2.144 -4.789,-4.789 0,-2.645 2.144,-4.789 4.789,-4.789 2.645,0 4.789,2.144 4.789,4.789 0,2.645 -2.144,4.789 -4.789,4.789zm-18.471 -5.036c0,-2.645 2.143,-4.789 4.788,-4.789 2.646,0 4.789,2.144 4.789,4.789 0,2.645 -2.143,4.789 -4.789,4.789 -2.645,0 -4.788,-2.144 -4.788,-4.789zm32.153 5.035c-2.645,0 -4.789,-2.144 -4.789,-4.788 0,-2.645 2.144,-4.789 4.789,-4.789 2.645,0 4.789,2.144 4.789,4.789 0,2.644 -2.144,4.788 -4.789,4.788zm4.789 -32.647c0,2.645 -2.144,4.789 -4.789,4.789 -2.645,0 -4.789,-2.144 -4.789,-4.789 0,-2.645 2.144,-4.789 4.789,-4.789 2.645,0 4.789,2.144 4.789,4.789z"/>
  <!---->
  <rect class="fil0" transform="matrix(8.76028E-15 0.330769 -0.307143 8.13455E-15 1874.51 1454.91)" width="395.274" height="425.679"/>
  <!-- from toilet -->
  <polygon class="fil0" points="1874.51,1599.339 1874.51,1730.083 1743.765,1730.083 1743.765,1684.021 1760.488,1674.366 1777.211,1664.711 1760.488,1655.056 1743.765,1645.401 1743.765,1599.339 "/>
  
  
  <!-- BOTTOM LINE -->
  <!---->
  <rect class="fil0" transform="matrix(8.76028E-15 0.330769 -0.307143 8.13455E-15 1730.08 1743.77)" width="395.274" height="425.679"/>
  <!---->
  <rect class="fil0" transform="matrix(8.76028E-15 0.330769 -0.307143 8.13455E-15 1585.66 1743.77)" width="395.274" height="425.679"/>
  <!---->
  <rect class="fil0" transform="matrix(8.76028E-15 0.330769 -0.307143 8.13455E-15 1441.23 1743.77)" width="395.274" height="425.679"/>
  <!-- bottom of track right-bottom -->
  <polygon class="fil0" points="1296.802,1743.766 1296.802,1874.51 1166.057,1874.51 1166.057,1743.766 1212.119,1743.766 1221.775,1760.488 1231.43,1777.211 1241.085,1760.488 1250.74,1743.766 "/>
  <!---->
  <polygon class="fil0" points="1152.375,1743.766 1152.375,1874.51 1021.63,1874.51 1021.63,1781.772 1044.435,1781.772 1044.531,1766.569 1021.63,1766.569 1021.63,1743.766 "/>
  <!-- start -->
  <path class="fil0" d="M1007.948 1874.509l-130.745 0 0 -57.77 22.805 0 0 -15.203 -22.805 0 0 -57.771 92.755 0c0.195,35.171 2.819,37.795 37.99,37.991l0 92.753zm-54.426 -38.007l-21.892 0c-9.031,0 -16.419,-7.389 -16.419,-16.419l0 -21.892c0,-9.031 7.388,-16.419 16.419,-16.419l21.892 0c9.03,0 16.419,7.388 16.419,16.419l0 21.892c0,9.03 -7.389,16.419 -16.419,16.419zm-1.805 -27.365c0,-2.645 2.144,-4.789 4.789,-4.789 2.645,0 4.789,2.144 4.789,4.789 0,2.644 -2.144,4.788 -4.789,4.788 -2.645,0 -4.789,-2.144 -4.789,-4.788zm9.331 -13.683c0,2.645 -2.144,4.789 -4.789,4.789 -2.645,0 -4.789,-2.144 -4.789,-4.789 0,-2.645 2.144,-4.789 4.789,-4.789 2.645,0 4.789,2.144 4.789,4.789zm-37.19 13.683c0,-2.645 2.144,-4.789 4.789,-4.789 2.645,0 4.789,2.144 4.789,4.789 0,2.644 -2.144,4.788 -4.789,4.788 -2.645,0 -4.789,-2.144 -4.789,-4.788zm5.036 -18.472c2.645,0 4.789,2.144 4.789,4.789 0,2.645 -2.144,4.789 -4.789,4.789 -2.645,0 -4.789,-2.144 -4.789,-4.789 0,-2.645 2.144,-4.789 4.789,-4.789zm-5.035 32.154c0,-2.645 2.144,-4.789 4.788,-4.789 2.645,0 4.789,2.144 4.789,4.789 0,2.645 -2.144,4.789 -4.789,4.789 -2.644,0 -4.788,-2.144 -4.788,-4.789zm32.647 4.789c-2.645,0 -4.789,-2.144 -4.789,-4.789 0,-2.645 2.144,-4.789 4.789,-4.789 2.645,0 4.789,2.144 4.789,4.789 0,2.645 -2.144,4.789 -4.789,4.789zm28.69 -83.843l22.752 0 0 22.764c-19.827,-0.29 -22.415,-2.704 -22.752,-22.764z"/>
  <!-- home 1 -->
  <path class="fil0" d="M1007.948 1730.083l-22.804 0 0 -9.122 11.709 0 -9.655 -16.723 -9.655 -16.723 -9.655 16.723 -9.655 16.723 11.708 0 0 9.122 -92.738 0 0 -130.745 130.745 0 0 130.745zm-95.778 -63.275c0.757,-1.602 18.32,-18.756 21.9,-22.326 1.761,-1.755 5.79,-6.417 7.764,-7.195l27.634 25.825c1.308,1.205 2.374,2.706 3.514,3.696l-10.346 0.02 -0.028 25.294 -14.833 -0.135 0.019 -21.003 -12.569 0 -0.033 21.15 -14.847 -0.201 0.01 -25.103 -8.185 -0.022z"/>
  <!-- home 2 -->
  <path class="fil0" d="M1007.948 1585.655l-130.745 0 0 -130.744 130.745 0 0 130.744zm-95.778 -69.548c0.757,-1.602 18.32,-18.757 21.9,-22.326 1.761,-1.755 5.79,-6.417 7.764,-7.195l27.634 25.825c1.308,1.205 2.374,2.706 3.514,3.696l-10.346 0.02 -0.028 25.294 -14.833 -0.135 0.019 -21.003 -12.569 0 -0.033 21.15 -14.847 -0.201 0.01 -25.104 -8.185 -0.021z"/>
  <!-- home 3 -->
  <path class="fil0" d="M1007.948 1441.228l-130.745 0 0 -130.744 130.745 0 0 130.744zm-95.778 -63.274c0.757,-1.603 18.32,-18.757 21.9,-22.326 1.761,-1.756 5.79,-6.417 7.764,-7.195l27.634 25.825c1.308,1.204 2.374,2.705 3.514,3.696l-10.346 0.02 -0.028 25.293 -14.833 -0.134 0.019 -21.003 -12.569 0 -0.033 21.15 -14.847 -0.202 0.01 -25.103 -8.185 -0.021z"/>
  <!-- home 4 -->
  <path class="fil0" d="M1007.948 1296.801l-130.745 0 0 -130.744 130.745 0 0 130.744zm-95.778 -63.274c0.757,-1.603 18.32,-18.757 21.9,-22.326 1.761,-1.756 5.79,-6.417 7.764,-7.195l27.634 25.825c1.308,1.204 2.374,2.705 3.514,3.696l-10.346 0.02 -0.028 25.294 -14.833 -0.135 0.019 -21.003 -12.569 0 -0.033 21.15 -14.847 -0.202 0.01 -25.103 -8.185 -0.021z"/>
  <!---->
  <polygon class="fil0" points="863.521,1874.509 732.777,1874.509 732.777,1743.765 863.521,1743.765 863.521,1801.536 854.399,1801.536 854.399,1789.827 837.676,1799.482 820.953,1809.137 837.676,1818.792 854.399,1828.447 854.399,1816.739 863.521,1816.739 "/>
  <!-- bottom of track bottom-left -->
  <polygon class="fil0" points="719.094,1874.509 588.35,1874.509 588.35,1743.765 634.412,1743.765 644.067,1760.488 653.722,1777.21 663.377,1760.488 673.032,1743.765 719.094,1743.765 "/>
  <!-- to toilet -->
  <rect class="fil0" x="443.923" y="1743.765" width="130.744" height="130.744"/>
  <!-- toilet 1 -->
  <path class="fil0" d="M574.667 1730.083l-46.062 0 -9.655 -16.723 -9.655 -16.723 -9.655 16.723 -9.655 16.723 -46.062 0 0 -130.745 130.744 0 0 130.745zm-54.426 -38.007l-21.892 0c-9.03,0 -16.419,-7.389 -16.419,-16.419l0 -21.892c0,-9.031 7.389,-16.419 16.419,-16.419l21.892 0c9.031,0 16.419,7.388 16.419,16.419l0 21.892c0,9.03 -7.388,16.419 -16.419,16.419zm-10.946 -22.577c-2.645,0 -4.789,-2.144 -4.789,-4.788 0,-2.645 2.144,-4.789 4.789,-4.789 2.645,0 4.789,2.144 4.789,4.789 0,2.644 -2.144,4.788 -4.789,4.788z"/>
  <!-- toilet 3 -->
  <path class="fil0" d="M430.241 1730.083l-130.745 0 0 -130.745 130.745 0 0 46.063 -16.723 9.655 -16.723 9.655 16.723 9.655 16.723 9.654 0 46.063zm-54.427 -38.007l-21.892 0c-9.03,0 -16.419,-7.389 -16.419,-16.419l0 -21.892c0,-9.031 7.389,-16.419 16.419,-16.419l21.892 0c9.031,0 16.419,7.388 16.419,16.419l0 21.892c0,9.03 -7.388,16.419 -16.419,16.419zm-24.628 -45.837c2.645,0 4.789,2.144 4.789,4.789 0,2.645 -2.144,4.789 -4.789,4.789 -2.645,0 -4.789,-2.144 -4.789,-4.789 0,-2.645 2.144,-4.789 4.789,-4.789zm27.365 36.943c-2.645,0 -4.789,-2.145 -4.789,-4.789 0,-2.645 2.144,-4.789 4.789,-4.789 2.644,0 4.789,2.144 4.789,4.789 0,2.644 -2.145,4.789 -4.789,4.789zm-13.683 -13.683c-2.645,0 -4.789,-2.144 -4.789,-4.788 0,-2.645 2.144,-4.789 4.789,-4.789 2.645,0 4.789,2.144 4.789,4.789 0,2.644 -2.144,4.788 -4.789,4.788z"/>
  <!-- toilet 6 -->
  <path class="fil0" d="M285.814 1730.083l-130.745 0 0 -130.745 130.745 0 0 46.062 -16.723 9.656 -16.723 9.655 16.723 9.655 16.723 9.655 0 46.062zm-54.427 -38.007l-21.892 0c-9.03,0 -16.419,-7.389 -16.419,-16.419l0 -21.892c0,-9.031 7.389,-16.419 16.419,-16.419l21.892 0c9.031,0 16.419,7.388 16.419,16.419l0 21.892c0,9.03 -7.388,16.419 -16.419,16.419zm-1.805 -27.365c0,-2.645 2.144,-4.789 4.789,-4.789 2.645,0 4.789,2.144 4.789,4.789 0,2.644 -2.144,4.788 -4.789,4.788 -2.645,0 -4.789,-2.144 -4.789,-4.788zm9.331 -13.683c0,2.645 -2.144,4.789 -4.788,4.789 -2.646,0 -4.79,-2.144 -4.79,-4.789 0,-2.645 2.144,-4.789 4.79,-4.789 2.644,0 4.788,2.144 4.788,4.789zm-37.19 13.683c0,-2.645 2.144,-4.789 4.789,-4.789 2.645,0 4.789,2.144 4.789,4.789 0,2.644 -2.144,4.788 -4.789,4.788 -2.645,0 -4.789,-2.144 -4.789,-4.788zm5.036 -18.472c2.646,0 4.789,2.144 4.789,4.789 0,2.645 -2.143,4.789 -4.789,4.789 -2.645,0 -4.789,-2.144 -4.789,-4.789 0,-2.645 2.144,-4.789 4.789,-4.789zm-5.035 32.154c0,-2.645 2.144,-4.789 4.789,-4.789 2.644,0 4.788,2.144 4.788,4.789 0,2.644 -2.144,4.789 -4.788,4.789 -2.645,0 -4.789,-2.145 -4.789,-4.789zm32.647 4.789c-2.645,0 -4.789,-2.145 -4.789,-4.789 0,-2.645 2.144,-4.789 4.789,-4.789 2.645,0 4.789,2.144 4.789,4.789 0,2.644 -2.144,4.789 -4.789,4.789z"/>
  <!---->
  <rect class="fil0" x="299.496" y="1743.765" width="130.744" height="130.744"/>
  <!-- from toilet -->
  <polygon class="fil0" points="285.814,1874.509 155.069,1874.509 155.069,1743.765 201.131,1743.765 210.786,1760.488 220.441,1777.21 230.096,1760.488 239.751,1743.765 285.814,1743.765 "/>


  <!-- LEFT LINE -->
  <!---->
  <rect class="fil0" x="10.642" y="1599.338" width="130.744" height="130.744"/>
  <!---->
  <rect class="fil0" x="10.642" y="1454.911" width="130.744" height="130.744"/>
  <!---->
  <rect class="fil0" x="10.642" y="1310.484" width="130.744" height="130.744"/>
  <!-- left of track bottom-left -->
  <polygon class="fil0" points="141.387,1296.801 10.642,1296.801 10.642,1166.057 141.387,1166.057 141.387,1212.119 124.664,1221.774 107.941,1231.429 124.664,1241.084 141.387,1250.74 "/>
  <!---->
  <polygon class="fil0" points="141.387,1152.374 10.642,1152.374 10.642,1021.63 103.379,1021.63 103.379,1044.434 118.582,1044.53 118.582,1021.63 141.387,1021.63 "/>
  <!-- start -->
  <path class="fil0" d="M10.642 1007.947l0 -130.744 57.771 0 0 22.804 15.203 0 0 -22.804 57.771 0 0 92.754c-35.172,0.195 -37.796,2.819 -37.991,37.99l-92.754 0zm38.008 -54.426l0 -21.892c0,-9.031 7.388,-16.419 16.419,-16.419l21.892 0c9.03,0 16.419,7.388 16.419,16.419l0 21.892c0,9.031 -7.389,16.419 -16.419,16.419l-21.892 0c-9.031,0 -16.419,-7.388 -16.419,-16.419zm27.365 -1.805c2.644,0 4.788,2.144 4.788,4.789 0,2.645 -2.144,4.789 -4.788,4.789 -2.645,0 -4.789,-2.144 -4.789,-4.789 0,-2.645 2.144,-4.789 4.789,-4.789zm13.682 9.331c-2.645,0 -4.788,-2.144 -4.788,-4.789 0,-2.645 2.143,-4.789 4.788,-4.789 2.645,0 4.789,2.144 4.789,4.789 0,2.645 -2.144,4.789 -4.789,4.789zm-13.682 -37.19c2.644,0 4.788,2.144 4.788,4.789 0,2.645 -2.144,4.789 -4.788,4.789 -2.645,0 -4.789,-2.144 -4.789,-4.789 0,-2.645 2.144,-4.789 4.789,-4.789zm18.471 5.036c0,2.645 -2.144,4.789 -4.789,4.789 -2.645,0 -4.788,-2.144 -4.788,-4.789 0,-2.645 2.143,-4.789 4.788,-4.789 2.645,0 4.789,2.144 4.789,4.789zm-32.153 -5.035c2.644,0 4.788,2.144 4.788,4.788 0,2.646 -2.144,4.789 -4.788,4.789 -2.646,0 -4.79,-2.143 -4.79,-4.789 0,-2.644 2.144,-4.788 4.79,-4.788zm-4.79 32.647c0,-2.645 2.144,-4.789 4.79,-4.789 2.644,0 4.788,2.144 4.788,4.789 0,2.645 -2.144,4.789 -4.788,4.789 -2.646,0 -4.79,-2.144 -4.79,-4.789zm83.844 28.69l0 22.752 -22.765 0c0.29,-19.827 2.704,-22.415 22.765,-22.752z"/>
  <!-- home 1 -->
  <path class="fil0" d="M155.069 1007.947l0 -22.804 9.122 0 0 11.709 16.722 -9.655 16.723 -9.655 -16.723 -9.655 -16.722 -9.655 0 11.709 -9.122 0 0 -92.738 130.744 0 0 130.744 -130.744 0zm69.548 -95.778c1.603,0.757 18.757,18.32 22.326,21.9 1.756,1.761 6.417,5.79 7.195,7.764l-25.825 27.634c-1.204,1.308 -2.705,2.374 -3.696,3.514l-0.019 -10.346 -25.294 -0.028 0.135 -14.833 21.002 0.019 0 -12.569 -21.149 -0.033 0.201 -14.847 25.103 0.011 0.021 -8.186z"/>
  <!-- home 2 -->
  <path class="fil0" d="M299.496 1007.947l0 -130.744 130.745 0 0 130.744 -130.745 0zm63.275 -95.778c1.602,0.757 18.757,18.32 22.326,21.9 1.755,1.761 6.417,5.79 7.195,7.764l-25.825 27.634c-1.205,1.308 -2.706,2.374 -3.696,3.514l-0.02 -10.346 -25.294 -0.028 0.135 -14.833 21.003 0.019 0 -12.569 -21.15 -0.033 0.202 -14.847 25.103 0.011 0.021 -8.186z"/>
  <!-- home 3 -->
  <path class="fil0" d="M443.923 1007.947l0 -130.744 130.744 0 0 130.744 -130.744 0zm69.548 -95.778c1.603,0.757 18.757,18.32 22.327,21.9 1.755,1.761 6.417,5.79 7.194,7.764l-25.824 27.634c-1.205,1.308 -2.706,2.374 -3.696,3.514l-0.02 -10.346 -25.294 -0.028 0.135 -14.833 21.002 0.019 0 -12.569 -21.149 -0.033 0.201 -14.847 25.103 0.011 0.021 -8.186z"/>
  <!-- home 4 -->
  <path class="fil0" d="M588.35 1007.947l0 -130.744 130.744 0 0 130.744 -130.744 0zm63.274 -95.778c1.603,0.757 18.757,18.32 22.327,21.9 1.755,1.761 6.416,5.79 7.194,7.764l-25.825 27.634c-1.204,1.308 -2.705,2.374 -3.695,3.514l-0.02 -10.346 -25.294 -0.028 0.135 -14.833 21.002 0.019 0 -12.569 -21.149 -0.033 0.201 -14.847 25.103 0.011 0.021 -8.186z"/>
  <!---->
  <polygon class="fil0" points="10.642,863.52 10.642,732.776 141.387,732.776 141.387,863.52 83.616,863.52 83.616,854.398 95.324,854.398 85.669,837.675 76.014,820.952 66.359,837.675 56.704,854.398 68.413,854.398 68.413,863.52 "/>
  <!-- right of track left-top -->
  <polygon class="fil0" points="10.642,719.094 10.642,588.349 141.387,588.349 141.387,634.411 124.664,644.066 107.941,653.721 124.664,663.376 141.387,673.031 141.387,719.094 "/>
  <!-- to toilet -->
  <rect class="fil0" transform="matrix(-2.62808E-14 -0.330769 0.307143 -2.44036E-14 10.642 574.666)" width="395.274" height="425.679"/>
  <!-- toilet 1 -->
  <path class="fil0" d="M155.069 574.667l0 -46.063 16.723 -9.655 16.722 -9.655 -16.722 -9.655 -16.723 -9.655 0 -46.062 130.744 0 0 130.745 -130.744 0zm38.007 -54.427l0 -21.892c0,-9.03 7.388,-16.419 16.419,-16.419l21.892 0c9.03,0 16.419,7.389 16.419,16.419l0 21.892c0,9.031 -7.389,16.419 -16.419,16.419l-21.892 0c-9.031,0 -16.419,-7.388 -16.419,-16.419zm22.576 -10.946c0,-2.645 2.144,-4.788 4.789,-4.788 2.644,0 4.788,2.143 4.788,4.788 0,2.645 -2.144,4.789 -4.788,4.789 -2.645,0 -4.789,-2.144 -4.789,-4.789z"/>
  <!-- toilet 3 -->
  <path class="fil0" d="M155.069 430.24l0 -130.745 130.744 0 0 130.745 -46.062 0 -9.655 -16.723 -9.655 -16.723 -9.655 16.723 -9.655 16.723 -46.062 0zm38.007 -54.427l0 -21.892c0,-9.03 7.388,-16.419 16.419,-16.419l21.892 0c9.03,0 16.419,7.389 16.419,16.419l0 21.892c0,9.031 -7.389,16.419 -16.419,16.419l-21.892 0c-9.031,0 -16.419,-7.388 -16.419,-16.419zm45.836 -24.628c0,2.645 -2.144,4.789 -4.789,4.789 -2.645,0 -4.788,-2.144 -4.788,-4.789 0,-2.645 2.143,-4.789 4.788,-4.789 2.645,0 4.789,2.144 4.789,4.789zm-36.943 27.365c0,-2.645 2.144,-4.789 4.79,-4.789 2.644,0 4.788,2.144 4.788,4.789 0,2.645 -2.144,4.789 -4.788,4.789 -2.646,0 -4.79,-2.144 -4.79,-4.789zm13.683 -13.683c0,-2.644 2.144,-4.788 4.789,-4.788 2.644,0 4.788,2.144 4.788,4.788 0,2.645 -2.144,4.789 -4.788,4.789 -2.645,0 -4.789,-2.144 -4.789,-4.789z"/>
  <!-- toilet 6 -->
  <path class="fil0" d="M155.069 285.813l0 -130.745 130.744 0 0 130.745 -46.062 0 -9.655 -16.723 -9.655 -16.723 -9.655 16.723 -9.656 16.723 -46.061 0zm38.007 -54.427l0 -21.892c0,-9.03 7.388,-16.419 16.419,-16.419l21.892 0c9.03,0 16.419,7.389 16.419,16.419l0 21.892c0,9.031 -7.389,16.419 -16.419,16.419l-21.892 0c-9.031,0 -16.419,-7.388 -16.419,-16.419zm27.365 -1.804c2.644,0 4.788,2.143 4.788,4.788 0,2.645 -2.144,4.789 -4.788,4.789 -2.645,0 -4.789,-2.144 -4.789,-4.789 0,-2.645 2.144,-4.788 4.789,-4.788zm13.682 9.33c-2.645,0 -4.788,-2.144 -4.788,-4.788 0,-2.645 2.143,-4.789 4.788,-4.789 2.645,0 4.789,2.144 4.789,4.789 0,2.644 -2.144,4.788 -4.789,4.788zm-13.682 -37.189c2.644,0 4.788,2.144 4.788,4.788 0,2.645 -2.144,4.789 -4.788,4.789 -2.645,0 -4.789,-2.144 -4.789,-4.789 0,-2.644 2.144,-4.788 4.789,-4.788zm18.471 5.036c0,2.644 -2.144,4.788 -4.789,4.788 -2.645,0 -4.788,-2.144 -4.788,-4.788 0,-2.646 2.143,-4.79 4.788,-4.79 2.645,0 4.789,2.144 4.789,4.79zm-32.153 -5.036c2.644,0 4.788,2.144 4.788,4.789 0,2.645 -2.144,4.788 -4.788,4.788 -2.646,0 -4.79,-2.143 -4.79,-4.788 0,-2.645 2.144,-4.789 4.79,-4.789zm-4.79 32.647c0,-2.645 2.144,-4.788 4.79,-4.788 2.644,0 4.788,2.143 4.788,4.788 0,2.645 -2.144,4.789 -4.788,4.789 -2.646,0 -4.79,-2.144 -4.79,-4.789z"/>
  <!---->
  <rect class="fil0" transform="matrix(-2.62808E-14 -0.330769 0.307143 -2.44036E-14 10.642 430.239)" width="395.274" height="425.679"/>
  <!-- from toilet -->
  <polygon class="fil0" points="10.642,285.813 10.642,155.068 141.387,155.068 141.387,201.13 124.664,210.785 107.941,220.44 124.664,230.095 141.387,239.751 141.387,285.813 "/>

  
  <!-- CENTER -->
  <path class="fil1" d="M955.881 806.302l11.955 59.909 45.491 -76.285 -18.196 91.767 71.197 -53.05 -51.909 77.79 86.113 -21.775 -77.754 52.021 87.938 12.843 -91.776 18.313 76.285 45.492 -91.768 -18.196 53.051 71.197 -77.79 -51.909 21.774 86.113 -52.02 -77.754 -12.843 87.937 -18.313 -91.775 -45.492 76.285 18.196 -91.768 -71.197 53.05 51.909 -77.789 -86.113 21.774 77.754 -52.021 -87.937 -12.842 91.775 -18.314 -76.285 -45.491 91.768 18.196 -53.05 -71.197 77.789 51.909 -21.775 -86.113 52.022 77.753 12.842 -87.937 6.359 31.867zm3.792 76.391l-8.447 -42.329 -7.659 52.439 -32.122 -48.013 13.003 51.423 -48.078 -32.082 31.713 42.562 -56.661 -11.236 45.56 27.17 -56.617 11.298 52.439 7.658 -48.013 32.123 51.423 -13.003 -32.082 48.078 42.561 -31.713 -11.235 56.661 27.169 -45.56 11.298 56.617 7.658 -52.439 32.124 48.013 -13.003 -51.423 48.077 32.082 -31.713 -42.561 56.662 11.235 -45.561 -27.169 56.617 -11.298 -52.438 -7.659 48.013 -32.123 -51.423 13.003 32.082 -48.077 -42.562 31.713 11.235 -56.662 -27.169 45.561 -2.851 -14.289z"/>
 </g>
</svg>
